<?xml version="1.0" encoding="utf-8"?>
<!-- Generator: Adobe Illustrator 27.4.0, SVG Export Plug-In . SVG Version: 6.00 Build 0)  -->
<svg version="1.1" id="Layer_1" xmlns="http://www.w3.org/2000/svg" xmlns:xlink="http://www.w3.org/1999/xlink" x="0px" y="0px"
	 viewBox="0 0 44.99 39.37" style="enable-background:new 0 0 44.99 39.37;" xml:space="preserve">
<style type="text/css">
	.st0{fill-rule:evenodd;clip-rule:evenodd;fill:#0055A1;}
</style>
<g>
	<g>
		<path class="st0" d="M44.63,18.37L34.71,1.32C34.24,0.5,33.36,0,32.42,0H12.57c-0.95,0-1.82,0.5-2.3,1.32L0.36,18.37
			c-0.47,0.81-0.47,1.82,0,2.63l9.92,17.05c0.47,0.81,1.35,1.32,2.3,1.32h19.84c0.95,0,1.82-0.5,2.3-1.32L44.63,21
			C45.11,20.19,45.11,19.18,44.63,18.37z M27.97,30.42c-6.84,3.1-17.46-17.38-10.77-20.84l1.96-0.96l3.24,6.28l-1.94,0.94
			c-2.03,1.08,2.2,9.29,4.28,8.29l1.92-0.93l3.27,6.26L27.97,30.42z"/>
	</g>
</g>
</svg>
